<svg width="528" height="62" viewBox="0 0 528 62" fill="none" xmlns="http://www.w3.org/2000/svg">
<path d="M451.226 0.482666H470.46L466.758 24.062L468.046 34.3629H469.092L481.727 3.21883H496.615L499.431 34.3629H500.478L505.065 24.062L508.767 0.482666H528L524.298 24.062C524.03 25.7788 523.413 27.6298 522.447 29.6148L508.123 58.3446C507.211 60.1687 505.789 61.0808 503.858 61.0808H489.131C488.272 61.0808 487.548 60.8393 486.958 60.3565C486.421 59.82 486.099 59.1225 485.992 58.2641L484.141 38.5476H483.095L474.967 58.2641C474.055 60.1419 472.687 61.0808 470.863 61.0808H456.216C455.358 61.0808 454.606 60.8393 453.963 60.3565C453.319 59.82 452.943 59.1494 452.836 58.3446L447.605 29.6148C447.23 27.6834 447.203 25.8325 447.525 24.062L451.226 0.482666Z" fill="#CDFF05"/>
<path d="M378.316 48.6073L383.949 13.037C384.539 9.44247 386.095 6.54535 388.617 4.34568C391.192 2.14602 394.464 0.858408 398.435 0.482857C402.029 0.160952 408.172 0 416.864 0C425.501 0 431.564 0.160952 435.051 0.482857C438.967 0.858408 441.838 2.14602 443.662 4.34568C445.486 6.54535 446.13 9.44247 445.593 13.037L439.96 48.6073C439.424 52.2018 437.868 55.099 435.292 57.2986C432.717 59.4446 429.445 60.7054 425.474 61.081C421.88 61.4029 415.764 61.5638 407.126 61.5638C398.488 61.5638 392.399 61.4029 388.858 61.081C384.995 60.7054 382.125 59.4446 380.247 57.2986C378.423 55.099 377.779 52.2018 378.316 48.6073ZM400.768 46.6758C403.075 46.9441 405.946 47.0782 409.379 47.0782C412.706 47.0782 415.63 46.9441 418.151 46.6758C419.01 46.5685 419.761 46.193 420.404 45.5492C421.048 44.8517 421.424 44.0738 421.531 43.2154L425.474 18.3484C425.635 17.4364 425.474 16.6584 424.992 16.0146C424.562 15.3708 423.945 14.9953 423.141 14.888C420.351 14.5661 417.481 14.4051 414.53 14.4051C411.633 14.4051 408.735 14.5661 405.838 14.888C403.907 15.1562 402.753 16.3097 402.378 18.3484L398.435 43.2154C398.327 44.1274 398.488 44.9054 398.917 45.5492C399.347 46.193 399.964 46.5685 400.768 46.6758Z" fill="#CDFF05"/>
<path d="M320.852 61.0808L330.428 0.482666H349.662L342.339 46.9171H376.943L374.69 61.0808H320.852Z" fill="#CDFF05"/>
<path d="M270.557 0.482666H328.258L326.005 14.6464H287.537L285.686 26.7177H313.37L311.197 40.1571H283.514L280.214 61.0808H260.98L270.557 0.482666Z" fill="#CDFF05"/>
<path d="M193.948 48.6073V13.037C193.948 9.44247 195.021 6.54535 197.167 4.34568C199.367 2.14602 202.452 0.858408 206.422 0.482857C209.963 0.160952 216.052 0 224.69 0C233.381 0 239.497 0.160952 243.038 0.482857C247.008 0.858408 250.067 2.14602 252.213 4.34568C254.412 6.54535 255.512 9.44247 255.512 13.037V48.6073C255.512 52.2018 254.412 55.099 252.213 57.2986C250.013 59.4446 246.955 60.7054 243.038 61.081C239.497 61.4029 233.381 61.5638 224.69 61.5638C216.052 61.5638 209.963 61.4029 206.422 61.081C202.452 60.7054 199.367 59.4446 197.167 57.2986C195.021 55.099 193.948 52.2018 193.948 48.6073ZM216.079 46.6758C218.386 46.9441 221.256 47.0782 224.69 47.0782C228.177 47.0782 231.074 46.9441 233.381 46.6758C234.24 46.5685 234.937 46.193 235.474 45.5492C236.01 44.9054 236.278 44.1274 236.278 43.2154V18.3484C236.278 17.4364 236.01 16.6584 235.474 16.0146C234.937 15.3708 234.24 14.9953 233.381 14.888C230.591 14.5661 227.694 14.4051 224.69 14.4051C221.739 14.4051 218.869 14.5661 216.079 14.888C215.221 14.9953 214.523 15.3708 213.987 16.0146C213.45 16.6584 213.182 17.4364 213.182 18.3484V43.2154C213.182 44.1274 213.45 44.9054 213.987 45.5492C214.523 46.193 215.221 46.5685 216.079 46.6758Z" fill="white"/>
<path d="M151.788 61.0808V14.8878H130.542V0.482666H192.186V14.8878H171.021V61.0808H151.788Z" fill="white"/>
<path d="M109.394 43.2158L109.314 0.402832L128.628 0.483307V48.6077C128.628 52.2023 127.528 55.0994 125.328 57.2991C123.182 59.4451 120.124 60.7059 116.154 61.0814C112.559 61.4033 106.443 61.5643 97.8055 61.5643C89.1678 61.5643 83.0517 61.4033 79.4571 61.0814C75.5406 60.7059 72.4826 59.4451 70.2829 57.2991C68.0832 55.0994 66.9834 52.2023 66.9834 48.6077V0.483307H86.2975V43.2158C86.2975 44.0742 86.5658 44.8522 87.1023 45.5496C87.6388 46.1934 88.3094 46.569 89.1142 46.6763C91.5285 46.9445 94.4256 47.0787 97.8055 47.0787C101.186 47.0787 104.083 46.9445 106.497 46.6763C107.355 46.569 108.053 46.1934 108.589 45.5496C109.126 44.9058 109.394 44.1279 109.394 43.2158Z" fill="white"/>
<path d="M45.0663 0.482666C47.0514 0.482666 48.4463 1.3679 49.2511 3.13836L62.2076 32.0291C63.0124 33.7996 63.4148 35.6237 63.4148 37.5014V61.0808H44.1006V49.0899H19.2337V61.0808H0V37.5014C0 35.5164 0.375553 33.6923 1.12666 32.0291L14.2442 3.13836C14.9416 1.3679 16.2829 0.482666 18.268 0.482666H45.0663ZM20.1189 35.57H43.2959L32.9145 13.5197H30.4198L20.1189 35.57Z" fill="white"/>
</svg>
