<svg width="24" height="24" viewBox="0 0 24 24" fill="none" xmlns="http://www.w3.org/2000/svg">
<mask id="mask0_113_48" style="mask-type:alpha" maskUnits="userSpaceOnUse" x="0" y="0" width="24" height="24">
<rect width="24" height="24" fill="#D9D9D9"/>
</mask>
<g mask="url(#mask0_113_48)">
<path d="M4.25 17.6362C4.0375 17.6362 3.85942 17.5643 3.71575 17.4204C3.57192 17.2768 3.5 17.0986 3.5 16.8859C3.5 16.6734 3.57192 16.4954 3.71575 16.3517C3.85942 16.2082 4.0375 16.1364 4.25 16.1364H19.75C19.9625 16.1364 20.1406 16.2083 20.2843 16.3519C20.4281 16.4958 20.5 16.674 20.5 16.8867C20.5 17.0992 20.4281 17.2773 20.2843 17.4209C20.1406 17.5644 19.9625 17.6362 19.75 17.6362H4.25ZM4.25 12.7517C4.0375 12.7517 3.85942 12.6798 3.71575 12.5359C3.57192 12.3921 3.5 12.2139 3.5 12.0014C3.5 11.7888 3.57192 11.6107 3.71575 11.4672C3.85942 11.3235 4.0375 11.2517 4.25 11.2517H19.75C19.9625 11.2517 20.1406 11.3236 20.2843 11.4674C20.4281 11.6113 20.5 11.7894 20.5 12.0019C20.5 12.2146 20.4281 12.3927 20.2843 12.5362C20.1406 12.6799 19.9625 12.7517 19.75 12.7517H4.25ZM4.25 7.86694C4.0375 7.86694 3.85942 7.7951 3.71575 7.65144C3.57192 7.5076 3.5 7.32935 3.5 7.11669C3.5 6.90419 3.57192 6.7261 3.71575 6.58244C3.85942 6.43894 4.0375 6.36719 4.25 6.36719H19.75C19.9625 6.36719 20.1406 6.4391 20.2843 6.58294C20.4281 6.7266 20.5 6.90477 20.5 7.11744C20.5 7.32994 20.4281 7.50802 20.2843 7.65169C20.1406 7.79519 19.9625 7.86694 19.75 7.86694H4.25Z" fill="white"/>
</g>
</svg>
